<?xml version="1.0" encoding="UTF-8"?>
<!DOCTYPE svg PUBLIC "-//W3C//DTD SVG 1.1//EN" "http://www.w3.org/Graphics/SVG/1.1/DTD/svg11.dtd">
<svg xmlns="http://www.w3.org/2000/svg" version="1.1" width="500px" height="500px" style="shape-rendering:geometricPrecision; text-rendering:geometricPrecision; image-rendering:optimizeQuality; fill-rule:evenodd; clip-rule:evenodd" xmlns:xlink="http://www.w3.org/1999/xlink">
<g><path style="opacity:1" fill="#e44f28" d="M 291.5,43.5 C 290.028,50.9514 289.361,58.618 289.5,66.5C 288.68,79.5146 287.68,92.5146 286.5,105.5C 285.778,105.918 285.278,106.584 285,107.5C 284.263,116.157 283.763,124.823 283.5,133.5C 282.44,147.828 281.44,162.162 280.5,176.5C 273.5,176.5 266.5,176.5 259.5,176.5C 262.787,135.582 265.787,94.5822 268.5,53.5C 234.167,53.5 199.833,53.5 165.5,53.5C 165.5,63.8333 165.5,74.1667 165.5,84.5C 138.664,85.1667 111.664,85.8333 84.5,86.5C 87.7992,118.124 90.7992,149.791 93.5,181.5C 117.672,181.169 141.672,181.502 165.5,182.5C 165.5,199.167 165.5,215.833 165.5,232.5C 165.44,233.043 165.107,233.376 164.5,233.5C 153.201,230.234 141.868,227.067 130.5,224C 129.874,223.25 129.374,222.416 129,221.5C 128.435,213.781 127.602,206.114 126.5,198.5C 116.188,197.501 105.855,197.168 95.5,197.5C 94.3467,203.653 94.18,209.986 95,216.5C 95.3826,217.056 95.8826,217.389 96.5,217.5C 97.5548,227.823 98.5548,238.156 99.5,248.5C 121.376,254.131 143.043,260.131 164.5,266.5C 165.146,277.439 165.812,288.439 166.5,299.5C 182.038,295.121 197.372,290.455 212.5,285.5C 213.468,287.607 213.802,289.941 213.5,292.5C 213.833,297.833 214.167,303.167 214.5,308.5C 198.073,313.065 181.573,317.399 165,321.5C 130.181,312.059 95.3475,302.726 60.5,293.5C 59.8658,287.855 59.5324,282.189 59.5,276.5C 59.4435,270.155 59.1102,263.821 58.5,257.5C 58.4714,254.731 57.8048,252.397 56.5,250.5C 55.1065,233.171 53.7731,215.838 52.5,198.5C 52.4734,191.82 52.1401,185.154 51.5,178.5C 51.4714,175.731 50.8048,173.397 49.5,171.5C 48.0562,154.175 46.7229,136.841 45.5,119.5C 44.8179,106.828 43.9845,94.1617 43,81.5C 42.6174,80.944 42.1174,80.6107 41.5,80.5C 40.3776,65.9866 39.0442,51.4866 37.5,37C 37.5445,35.2358 37.8778,33.5691 38.5,32C 123.166,31.5 207.833,31.3333 292.5,31.5C 292.817,35.7016 292.483,39.7016 291.5,43.5 Z"/></g>
<g><path style="opacity:1" fill="#ea7758" d="M 291.5,43.5 C 291.539,51.3736 290.872,59.0403 289.5,66.5C 289.361,58.618 290.028,50.9514 291.5,43.5 Z"/></g>
<g><path style="opacity:1" fill="#f06429" d="M 259.5,176.5 C 252.167,176.5 244.833,176.5 237.5,176.5C 237.896,168.98 238.562,161.48 239.5,154C 239.441,152.564 239.108,151.231 238.5,150C 214.169,149.5 189.836,149.333 165.5,149.5C 165.5,138.833 165.5,128.167 165.5,117.5C 191.167,117.5 216.833,117.5 242.5,117.5C 243.28,107.479 244.28,97.4791 245.5,87.5C 245.392,86.5581 245.059,85.7247 244.5,85C 218.169,84.5 191.835,84.3334 165.5,84.5C 165.5,74.1667 165.5,63.8333 165.5,53.5C 199.833,53.5 234.167,53.5 268.5,53.5C 265.787,94.5822 262.787,135.582 259.5,176.5 Z"/></g>
<g><path style="opacity:1" fill="#e97252" d="M 41.5,80.5 C 42.1174,80.6107 42.6174,80.944 43,81.5C 43.9845,94.1617 44.8179,106.828 45.5,119.5C 43.8175,106.678 42.4842,93.6777 41.5,80.5 Z"/></g>
<g><path style="opacity:1" fill="#e44f28" d="M 120.5,117.5 C 135.5,117.5 150.5,117.5 165.5,117.5C 165.5,128.167 165.5,138.833 165.5,149.5C 151.402,150.822 137.402,150.822 123.5,149.5C 122.829,138.782 121.829,128.116 120.5,117.5 Z"/></g>
<g><path style="opacity:1" fill="#e67759" d="M 120.5,117.5 C 121.829,128.116 122.829,138.782 123.5,149.5C 121.724,139.527 120.391,129.36 119.5,119C 119.57,118.235 119.903,117.735 120.5,117.5 Z"/></g>
<g><path style="opacity:1" fill="#e97051" d="M 286.5,105.5 C 285.822,115.009 284.822,124.343 283.5,133.5C 283.763,124.823 284.263,116.157 285,107.5C 285.278,106.584 285.778,105.918 286.5,105.5 Z"/></g>
<g><path style="opacity:1" fill="#ea7555" d="M 49.5,171.5 C 50.8048,173.397 51.4714,175.731 51.5,178.5C 52.1401,185.154 52.4734,191.82 52.5,198.5C 51.2324,189.668 50.2324,180.668 49.5,171.5 Z"/></g>
<g><path style="opacity:1" fill="#639bc3" d="M 237.5,176.5 C 244.833,176.5 252.167,176.5 259.5,176.5C 266.5,176.5 273.5,176.5 280.5,176.5C 342.002,176.168 403.336,176.501 464.5,177.5C 378.167,177.5 291.833,177.5 205.5,177.5C 205.5,182.833 205.5,188.167 205.5,193.5C 204.833,191.167 204.167,188.833 203.5,186.5C 203.5,184.833 203.5,183.167 203.5,181.5C 203.286,179.856 203.62,178.356 204.5,177C 215.495,176.5 226.495,176.333 237.5,176.5 Z"/></g>
<g><path style="opacity:1" fill="#0677bd" d="M 464.5,177.5 C 463.681,191.18 462.681,204.847 461.5,218.5C 460.883,218.611 460.383,218.944 460,219.5C 458.955,231.824 458.122,244.157 457.5,256.5C 456.741,269.853 455.741,283.186 454.5,296.5C 453.71,297.609 453.21,298.942 453,300.5C 451.835,312.148 451.002,323.815 450.5,335.5C 448.271,369.587 445.271,403.587 441.5,437.5C 405.995,448.294 370.329,458.627 334.5,468.5C 298.526,458.549 262.692,448.216 227,437.5C 222.656,394.546 218.822,351.546 215.5,308.5C 215.624,302.931 214.957,297.598 213.5,292.5C 213.802,289.941 213.468,287.607 212.5,285.5C 212.07,275.149 211.403,264.815 210.5,254.5C 208.503,234.194 206.836,213.86 205.5,193.5C 205.5,188.167 205.5,182.833 205.5,177.5C 291.833,177.5 378.167,177.5 464.5,177.5 Z M 331.5,407.5 C 312.699,400.732 293.699,394.232 274.5,388C 273.047,376.093 272.047,364.093 271.5,352C 271.536,349.906 271.869,347.906 272.5,346C 282.184,345.168 291.851,345.335 301.5,346.5C 302.147,352.698 302.814,358.864 303.5,365C 312.745,368.471 322.079,371.637 331.5,374.5C 332.601,375.598 333.934,375.765 335.5,375C 345.502,371.889 355.335,368.389 365,364.5C 366.474,353.217 367.308,341.883 367.5,330.5C 356.5,330.5 345.5,330.5 334.5,330.5C 323.167,330.5 311.833,330.5 300.5,330.5C 299.922,320.176 299.588,309.843 299.5,299.5C 311.167,299.5 322.833,299.5 334.5,299.5C 346.167,299.5 357.833,299.5 369.5,299.5C 370.422,289.52 371.088,279.52 371.5,269.5C 359.167,269.5 346.833,269.5 334.5,269.5C 311.673,268.502 288.673,268.169 265.5,268.5C 265.292,258.462 264.625,248.462 263.5,238.5C 310.404,237.864 357.237,237.864 404,238.5C 401.392,288.169 398.392,337.836 395,387.5C 379.322,393.393 363.489,398.893 347.5,404C 342.306,405.9 336.973,407.067 331.5,407.5 Z"/></g>
<g><path style="opacity:1" fill="#f0652a" d="M 203.5,181.5 C 203.5,183.167 203.5,184.833 203.5,186.5C 202.888,197.845 202.055,209.178 201,220.5C 200.751,221.624 200.251,222.624 199.5,223.5C 188.326,227.127 176.993,230.127 165.5,232.5C 165.5,215.833 165.5,199.167 165.5,182.5C 178.246,182.813 190.913,182.48 203.5,181.5 Z"/></g>
<g><path style="opacity:1" fill="#069ae4" d="M 331.5,407.5 C 336.973,407.067 342.306,405.9 347.5,404C 363.489,398.893 379.322,393.393 395,387.5C 398.392,337.836 401.392,288.169 404,238.5C 357.237,237.864 310.404,237.864 263.5,238.5C 286.661,237.502 309.994,237.169 333.5,237.5C 333.5,224.833 333.5,212.167 333.5,199.5C 368.833,199.5 404.167,199.5 439.5,199.5C 432.748,272.999 426.415,346.666 420.5,420.5C 391.818,428.371 363.152,436.371 334.5,444.5C 334.5,432.5 334.5,420.5 334.5,408.5C 333.209,408.737 332.209,408.404 331.5,407.5 Z"/></g>
<g><path style="opacity:1" fill="#e56948" d="M 95.5,197.5 C 95.6123,204.18 95.9457,210.847 96.5,217.5C 95.8826,217.389 95.3826,217.056 95,216.5C 94.18,209.986 94.3467,203.653 95.5,197.5 Z"/></g>
<g><path style="opacity:1" fill="#499ace" d="M 461.5,218.5 C 460.576,231.351 459.243,244.018 457.5,256.5C 458.122,244.157 458.955,231.824 460,219.5C 460.383,218.944 460.883,218.611 461.5,218.5 Z"/></g>
<g><path style="opacity:1" fill="#ea7354" d="M 56.5,250.5 C 57.8048,252.397 58.4714,254.731 58.5,257.5C 59.1102,263.821 59.4435,270.155 59.5,276.5C 58.2692,267.999 57.2692,259.332 56.5,250.5 Z"/></g>
<g><path style="opacity:1" fill="#f0652a" d="M 210.5,254.5 C 211.403,264.815 212.07,275.149 212.5,285.5C 197.372,290.455 182.038,295.121 166.5,299.5C 165.812,288.439 165.146,277.439 164.5,266.5C 179.889,262.703 195.223,258.703 210.5,254.5 Z"/></g>
<g><path style="opacity:1" fill="#069be4" d="M 334.5,269.5 C 346.833,269.5 359.167,269.5 371.5,269.5C 371.088,279.52 370.422,289.52 369.5,299.5C 357.833,299.5 346.167,299.5 334.5,299.5C 334.5,289.5 334.5,279.5 334.5,269.5 Z"/></g>
<g><path style="opacity:1" fill="#6d657a" d="M 213.5,292.5 C 214.957,297.598 215.624,302.931 215.5,308.5C 215.167,308.5 214.833,308.5 214.5,308.5C 214.167,303.167 213.833,297.833 213.5,292.5 Z"/></g>
<g><path style="opacity:1" fill="#4799cd" d="M 454.5,296.5 C 453.636,309.691 452.302,322.691 450.5,335.5C 451.002,323.815 451.835,312.148 453,300.5C 453.21,298.942 453.71,297.609 454.5,296.5 Z"/></g>
<g><path style="opacity:1" fill="#0b9be4" d="M 334.5,330.5 C 345.5,330.5 356.5,330.5 367.5,330.5C 367.308,341.883 366.474,353.217 365,364.5C 355.335,368.389 345.502,371.889 335.5,375C 333.934,375.765 332.601,375.598 331.5,374.5C 332.5,374.5 333.5,374.5 334.5,374.5C 334.5,359.833 334.5,345.167 334.5,330.5 Z"/></g>
</svg>
