<svg xmlns="http://www.w3.org/2000/svg" xmlns:xlink="http://www.w3.org/1999/xlink" width="200.04" height="40" viewBox="0 0 200.04 40"><defs><style>.a{fill:none;}.b{fill:url(#a);}.c{fill:url(#b);}.d{fill:url(#c);}.e{fill:url(#d);}.f{fill:url(#e);}.g{fill:#fff;}</style><linearGradient id="a" x1="0.128" y1="-0.087" x2="1.578" y2="1.715" gradientUnits="objectBoundingBox"><stop offset="0.22" stop-color="#14b3b5"/><stop offset="0.597" stop-color="#3e99d4"/></linearGradient><linearGradient id="b" x1="-0.973" y1="-1.383" x2="3.071" y2="3.792" gradientUnits="objectBoundingBox"><stop offset="0.345" stop-color="#7578b8"/><stop offset="0.523" stop-color="#34365b"/></linearGradient><linearGradient id="c" x1="-1.371" y1="-1.622" x2="1.755" y2="1.924" gradientUnits="objectBoundingBox"><stop offset="0.511" stop-color="#ec2e91"/><stop offset="0.658" stop-color="#941c53"/></linearGradient><linearGradient id="d" x1="-2.282" y1="-3.266" x2="1.353" y2="1.655" gradientUnits="objectBoundingBox"><stop offset="0.704" stop-color="#ffc807"/><stop offset="0.866" stop-color="#f1653f"/></linearGradient><linearGradient id="e" x1="0.122" y1="0.135" x2="0.876" y2="0.743" gradientUnits="objectBoundingBox"><stop offset="0.323" stop-color="#747cbb"/><stop offset="0.849" stop-color="#14b3b5"/></linearGradient></defs><g transform="translate(-120 -75)"><rect class="a" width="200" height="40" transform="translate(120 75)"/><g transform="translate(22.4 -133.725)"><g transform="translate(127.969 224.234)"><path d="M219.511,254.994a7.078,7.078,0,0,0-3.71,3.706,6.722,6.722,0,0,0-.557,2.729v2.456a6.833,6.833,0,0,0,2.055,4.937,7,7,0,0,0,2.2,1.475,6.8,6.8,0,0,0,2.738.559h13.42V267.42H222.191a3.421,3.421,0,0,1-1.368-.278,3.5,3.5,0,0,1-1.124-.772,3.813,3.813,0,0,1-.767-1.132,3.342,3.342,0,0,1-.276-1.354V261.43a3.4,3.4,0,0,1,.279-1.369,3.638,3.638,0,0,1,1.917-1.911,3.551,3.551,0,0,1,1.385-.28h13.42v-3.435h-13.42A6.761,6.761,0,0,0,219.511,254.994Z" transform="translate(-215.244 -254.435)"/><path class="b" d="M528.036,254.994a7.1,7.1,0,0,0-3.71,3.706,6.791,6.791,0,0,0-.559,2.729v2.456a6.837,6.837,0,0,0,2.058,4.937,7.02,7.02,0,0,0,2.2,1.475,6.8,6.8,0,0,0,2.738.559h13.419V267.42H530.716a3.417,3.417,0,0,1-1.368-.278,3.569,3.569,0,0,1-1.126-.772,3.817,3.817,0,0,1-.764-1.132,3.321,3.321,0,0,1-.28-1.354V261.43a3.419,3.419,0,0,1,.28-1.369,3.651,3.651,0,0,1,1.918-1.911,3.548,3.548,0,0,1,1.386-.28h13.419v-3.435H530.763A6.764,6.764,0,0,0,528.036,254.994Z" transform="translate(-444.125 -254.435)"/><path d="M326.743,256.84a5.713,5.713,0,0,0-1.76-1.174,5.474,5.474,0,0,0-2.164-.432H310.984v3.342h11.835a2.005,2.005,0,0,1,.831.179,2.458,2.458,0,0,1,.719.48,2.152,2.152,0,0,1,.479.7,1.994,1.994,0,0,1,.177.829v.095h-12a5.445,5.445,0,0,0-3.8,1.536,5.579,5.579,0,0,0-1.188,1.681,5.061,5.061,0,0,0-.323,3.183,6.081,6.081,0,0,0,.323,1,5.373,5.373,0,0,0,2.015,2.324,5.509,5.509,0,0,0,3.041.873l15.276.022v-10.71a5.444,5.444,0,0,0-1.625-3.921Zm-1.762,7.382v3.86H313.022a2.234,2.234,0,0,1-1.476-.558,1.865,1.865,0,0,1-.452-.616,1.8,1.8,0,0,1-.165-.754,1.689,1.689,0,0,1,.239-.9,1.964,1.964,0,0,1,.608-.624l.1-.053a2.547,2.547,0,0,1,.578-.262,2.04,2.04,0,0,1,.633-.1Z" transform="translate(-283.752 -255.028)"/><path d="M409.78,255.679a6.984,6.984,0,0,0-2.167,1.45,6.748,6.748,0,0,0-1.466,2.157,6.651,6.651,0,0,0-.535,2.644v9.45h3.343v-9.45a3.15,3.15,0,0,1,.279-1.317,3.727,3.727,0,0,1,.751-1.1,3.63,3.63,0,0,1,1.11-.751,3.23,3.23,0,0,1,1.329-.277h11.606v-3.345H412.423A6.568,6.568,0,0,0,409.78,255.679Z" transform="translate(-356.47 -254.96)"/><g transform="translate(72.098 0.183)"><path d="M494.541,282.181h3.419V270.655l-3.419-.954Z" transform="translate(-494.541 -265.943)"/><rect width="3.419" height="3.489"/></g><path class="c" d="M629.077,256.84a5.761,5.761,0,0,0-1.765-1.174,5.458,5.458,0,0,0-2.161-.432H613.318v3.342h11.833a1.978,1.978,0,0,1,.829.179,2.447,2.447,0,0,1,.721.48,2.208,2.208,0,0,1,.478.7,1.965,1.965,0,0,1,.177.829v.095h-12a5.436,5.436,0,0,0-2.068.405,5.51,5.51,0,0,0-2.919,2.812,5.074,5.074,0,0,0-.324,3.185,6.229,6.229,0,0,0,.322.994,5.4,5.4,0,0,0,2.016,2.324,5.515,5.515,0,0,0,3.04.873l15.278.022v-10.71a5.442,5.442,0,0,0-1.622-3.921Zm-1.767,7.382v3.86H615.355a2.251,2.251,0,0,1-1.478-.558,1.838,1.838,0,0,1-.452-.616,1.808,1.808,0,0,1-.16-.754,1.7,1.7,0,0,1,.233-.894,1.912,1.912,0,0,1,.607-.626l.11-.053a2.44,2.44,0,0,1,.577-.262,2.022,2.022,0,0,1,.629-.1Z" transform="translate(-508.04 -255.028)"/><path class="d" d="M712.114,255.679a6.99,6.99,0,0,0-2.163,1.45,6.733,6.733,0,0,0-1.47,2.157,6.652,6.652,0,0,0-.531,2.644v9.45h3.343v-9.45a3.144,3.144,0,0,1,.277-1.317,3.666,3.666,0,0,1,.752-1.1,3.628,3.628,0,0,1,1.1-.751,3.276,3.276,0,0,1,1.334-.277h11.606v-3.345H714.76A6.607,6.607,0,0,0,712.114,255.679Z" transform="translate(-580.763 -254.96)"/><path class="e" d="M809.441,255.234H787.513v3.342h15l-15.026,9.9v2.968H809.14v-3.367H794.169l15.272-9.994Z" transform="translate(-639.77 -255.028)"/></g><path class="f" d="M119.93,228.154h0l-6.569-6.522a.513.513,0,0,1,0-.731.518.518,0,0,1,.732-.005l6.4,6.336c.082.044.188.042.242-.187,0-.029.011-.059.017-.086v-.009a11.393,11.393,0,0,0-5.014-11.25,11.7,11.7,0,0,0-6.9-1.974,11.516,11.516,0,0,0-10.085,16.536,36.1,36.1,0,0,0,7.339,10.544c2.392,2.369,3.864,2.372,6.278,0,.842-.824,1.624-1.712,2.4-2.6.594-.667.578-1-.054-1.647-1-1.018-2.016-2.02-3.026-3.027-.293-.288-.6-.583-.208-1,.406-.433.7-.1.988.182.992.991,1.973,1.994,2.97,2.983.546.534.8.524,1.241-.094.429-.6.8-1.238,1.211-1.85a1.115,1.115,0,0,0-.2-1.582c-.807-.794-1.6-1.6-2.4-2.4-.3-.3-.573-.614-.189-1,.4-.41.708-.071.993.207.738.725,1.458,1.465,2.206,2.181.494.475.77.423,1.079-.173a14.731,14.731,0,0,0,.752-1.7c.035-.1.125-.362.158-.457a.32.32,0,0,1,.012-.041c.048-.162-.161-.414-.288-.545Z"/><path class="g" d="M118.621,235.806l-3.288,3.3a1.357,1.357,0,0,0,.006,1.92l6.917,6.889a1.357,1.357,0,0,0,1.921,0l3.286-3.3a1.355,1.355,0,0,0,0-1.916L120.54,235.8A1.358,1.358,0,0,0,118.621,235.806Zm-1.091,5.433c1.043-1.135,2.119-2.214,3.246-3.261a.262.262,0,0,1,.366,0l.023,1.052a15.817,15.817,0,0,1-2.586,2.592l-1.05-.02A.258.258,0,0,1,117.531,241.239Zm3.456,4.735c-1.132-1.042-2.214-2.12-3.26-3.247a.256.256,0,0,1,0-.365l1.049-.024a15.747,15.747,0,0,1,2.594,2.584l-.019,1.052A.261.261,0,0,1,120.986,245.974Zm4.8-3c-1.044,1.13-2.12,2.212-3.25,3.257a.254.254,0,0,1-.36,0l-.026-1.052a15.859,15.859,0,0,1,2.584-2.595l1.053.019A.266.266,0,0,1,125.791,242.973Zm-.28-1.54a.257.257,0,0,1,0,.363l-1.049.025a15.622,15.622,0,0,1-2.6-2.587l.02-1.047a.256.256,0,0,1,.362,0C123.383,239.225,124.464,240.3,125.511,241.433Z" transform="translate(-12.863 -16.086)"/></g></g></svg>