<svg id="svg" version="1.1" xmlns="http://www.w3.org/2000/svg" xmlns:xlink="http://www.w3.org/1999/xlink" width="400" height="87.5" viewBox="0, 0, 400,87.5"><g id="svgg"><path id="path0" d="M10.000 34.410 C 10.000 56.032,10.046 56.913,11.130 56.129 C 11.751 55.680,18.379 49.828,25.858 43.125 C 33.337 36.422,39.661 30.863,39.912 30.772 C 40.263 30.644,56.525 44.843,68.594 55.814 L 70.000 57.093 70.000 34.484 L 70.000 11.875 68.447 11.875 L 66.894 11.875 66.728 30.357 L 66.563 48.838 58.750 41.822 C 54.453 37.963,48.499 32.589,45.519 29.881 L 40.101 24.957 26.925 36.888 L 13.750 48.820 13.750 30.347 L 13.750 11.875 11.875 11.875 L 10.000 11.875 10.000 34.410 M270.637 28.906 C 265.921 31.316,265.313 33.299,265.313 46.250 C 265.313 62.492,266.876 64.688,278.438 64.688 C 288.901 64.688,290.834 62.715,291.146 51.719 L 291.355 44.375 285.365 44.375 L 279.375 44.375 279.375 46.250 L 279.375 48.125 283.125 48.125 L 286.875 48.125 286.875 51.906 C 286.875 58.438,284.759 60.625,278.438 60.625 C 270.943 60.625,270.000 59.019,270.000 46.250 C 270.000 33.577,271.204 31.570,278.740 31.683 C 283.826 31.760,286.875 34.443,286.875 38.843 C 286.875 39.749,287.350 40.000,289.063 40.000 C 293.523 40.000,291.397 31.648,286.242 28.922 C 282.418 26.900,274.580 26.892,270.637 28.906 M100.000 29.226 C 100.000 30.164,102.924 40.449,108.713 59.879 L 110.074 64.446 112.379 64.254 L 114.683 64.063 118.416 50.793 C 120.469 43.495,122.344 37.729,122.582 37.981 C 122.820 38.232,124.635 44.273,126.615 51.406 L 130.215 64.375 132.608 64.375 C 133.923 64.375,135.000 64.239,135.000 64.074 C 135.000 63.908,137.250 56.134,140.000 46.798 C 145.860 26.905,145.703 27.991,142.676 28.244 L 140.352 28.438 136.603 41.406 C 134.541 48.539,132.704 54.375,132.521 54.374 C 132.338 54.374,130.519 48.468,128.479 41.249 L 124.771 28.125 122.428 28.125 C 120.735 28.125,119.995 28.429,119.763 29.219 C 119.587 29.820,118.288 34.391,116.878 39.375 C 115.468 44.359,113.871 49.984,113.329 51.875 L 112.344 55.313 109.874 46.875 C 108.516 42.234,106.706 36.117,105.852 33.281 L 104.299 28.125 102.150 28.125 C 100.514 28.125,100.000 28.388,100.000 29.226 M173.750 46.250 L 173.750 64.375 175.558 64.375 C 176.591 64.375,177.521 63.972,177.727 63.435 C 178.036 62.630,178.382 62.675,180.137 63.745 C 184.349 66.313,191.487 64.928,193.552 61.143 C 195.327 57.890,195.214 43.935,193.393 41.452 C 190.723 37.812,185.535 36.583,180.469 38.391 L 178.125 39.228 178.125 33.676 L 178.125 28.125 175.938 28.125 L 173.750 28.125 173.750 46.250 M200.625 46.250 L 200.625 64.375 202.500 64.375 C 203.750 64.375,204.375 64.063,204.375 63.438 C 204.375 62.230,204.500 62.247,207.172 63.824 C 210.655 65.879,216.238 65.300,218.936 62.604 L 220.938 60.605 221.117 52.021 C 221.389 39.055,217.173 34.883,207.344 38.391 L 205.000 39.228 205.000 33.676 L 205.000 28.125 202.813 28.125 L 200.625 28.125 200.625 46.250 M151.448 38.675 C 144.630 41.874,144.712 61.241,151.556 64.100 C 154.278 65.238,160.660 65.263,163.330 64.148 C 167.684 62.329,169.171 56.875,165.313 56.875 C 163.897 56.875,163.125 57.172,163.125 57.716 C 163.125 59.472,160.662 60.846,157.431 60.892 C 153.567 60.948,151.250 58.843,151.250 55.278 L 151.250 53.125 159.688 53.125 L 168.125 53.125 168.124 48.906 C 168.122 39.441,160.189 34.574,151.448 38.675 M306.563 37.946 C 305.875 38.127,304.758 38.663,304.080 39.138 C 302.491 40.249,301.875 40.228,301.875 39.063 C 301.875 38.438,301.250 38.125,300.000 38.125 L 298.125 38.125 298.125 51.250 L 298.125 64.375 300.313 64.375 L 302.500 64.375 302.500 55.085 C 302.500 43.498,303.228 42.302,310.625 41.731 C 312.601 41.579,312.813 41.382,312.813 39.688 C 312.813 37.732,310.168 36.996,306.563 37.946 M320.133 38.704 C 313.404 41.857,313.537 61.272,320.306 64.100 C 325.884 66.431,333.764 64.661,335.780 60.625 C 337.248 57.688,337.347 45.246,335.927 42.254 C 333.896 37.975,325.647 36.120,320.133 38.704 M377.513 38.198 C 376.661 38.538,375.465 39.266,374.857 39.817 C 373.830 40.746,373.750 40.721,373.750 39.472 C 373.750 38.392,373.378 38.125,371.875 38.125 L 370.000 38.125 370.000 56.602 L 370.000 75.079 372.031 74.883 L 374.063 74.688 374.244 69.162 C 374.406 64.219,374.538 63.685,375.494 64.101 C 377.537 64.992,384.631 65.080,386.231 64.235 C 392.622 60.859,392.636 41.785,386.250 38.595 C 383.862 37.402,379.952 37.224,377.513 38.198 M224.375 38.678 C 224.375 39.024,226.440 44.918,228.965 51.775 L 233.554 64.243 231.777 69.118 C 229.459 75.478,229.478 75.745,232.252 75.506 L 234.503 75.313 240.713 58.125 C 248.627 36.217,248.217 37.993,245.304 38.239 L 242.951 38.438 239.461 47.954 L 235.972 57.471 232.461 47.954 L 228.949 38.438 226.662 38.244 C 225.404 38.137,224.375 38.333,224.375 38.678 M342.503 47.969 C 342.508 59.557,343.037 62.084,345.820 63.780 C 348.488 65.407,353.347 65.393,356.413 63.750 C 359.208 62.252,359.375 62.235,359.375 63.438 C 359.375 64.063,360.000 64.375,361.250 64.375 L 363.125 64.375 363.125 51.250 L 363.125 38.125 360.938 38.125 L 358.750 38.125 358.750 47.781 L 358.750 57.436 356.554 59.111 C 353.882 61.149,349.965 61.482,348.293 59.812 C 347.343 58.864,347.160 57.258,346.989 48.417 L 346.791 38.125 344.645 38.125 L 342.500 38.125 342.503 47.969 M160.909 42.263 C 162.217 42.765,163.750 45.743,163.750 47.781 L 163.750 49.375 157.500 49.375 L 151.250 49.375 151.250 47.159 C 151.250 43.006,156.246 40.474,160.909 42.263 M188.705 43.522 C 190.375 45.645,190.633 56.944,189.062 59.186 C 187.215 61.823,182.674 61.544,179.531 58.599 C 177.157 56.375,177.399 44.184,179.844 42.857 C 182.794 41.257,187.182 41.586,188.705 43.522 M215.580 43.522 C 217.078 45.427,217.470 55.509,216.158 58.390 C 214.678 61.637,209.762 61.743,206.406 58.599 C 204.032 56.375,204.274 44.184,206.719 42.857 C 209.669 41.257,214.057 41.586,215.580 43.522 M330.712 43.070 C 332.898 44.840,332.973 57.305,330.810 59.468 C 328.618 61.660,323.506 61.504,321.509 59.184 C 319.210 56.512,319.227 45.716,321.534 43.409 C 323.519 41.424,328.454 41.242,330.712 43.070 M384.462 43.070 C 386.671 44.859,386.721 57.306,384.528 59.500 C 382.888 61.140,379.558 61.372,376.406 60.066 L 374.375 59.223 374.375 52.167 L 374.375 45.111 376.298 43.493 C 378.665 41.501,382.293 41.313,384.462 43.070 M26.563 58.254 C 14.202 69.474,13.426 70.309,13.245 72.584 C 12.983 75.888,12.303 76.348,26.750 63.439 C 33.865 57.081,39.868 51.878,40.089 51.877 C 40.310 51.876,46.321 57.078,53.446 63.438 C 67.516 75.995,67.500 75.984,67.500 72.891 C 67.500 71.041,42.746 47.144,40.112 46.451 C 39.878 46.389,33.781 51.701,26.563 58.254 " stroke="none" fill="#000000" fill-rule="evenodd"></path></g></svg>